<?xml version="1.0" encoding="UTF-8" standalone="no"?>
<!-- Uploaded to: SVG Repo, www.svgrepo.com, Generator: SVG Repo Mixer Tools -->
<svg   
   id="main"
   width="535"
   height="800"
   viewBox="0 0 16.05 24"
   fill="none"
   version="1.1"
   sodipodi:docname="home.svg"
   inkscape:version="1.3.2 (1:1.3.2+202311252150+091e20ef0f)"
   xmlns:inkscape="http://www.inkscape.org/namespaces/inkscape"
   xmlns:sodipodi="http://sodipodi.sourceforge.net/DTD/sodipodi-0.dtd"
   xmlns="http://www.w3.org/2000/svg"
   xmlns:svg="http://www.w3.org/2000/svg">
  <defs
     id="defs1" />
  <sodipodi:namedview
     id="namedview1"
     pagecolor="#ffffff"
     bordercolor="#000000"
     borderopacity="0.25"
     inkscape:showpageshadow="2"
     inkscape:pageopacity="0.0"
     inkscape:pagecheckerboard="0"
     inkscape:deskcolor="#d1d1d1"
     inkscape:zoom="0.9"
     inkscape:cx="249.44444"
     inkscape:cy="367.77778"
     inkscape:window-width="1920"
     inkscape:window-height="970"
     inkscape:window-x="0"
     inkscape:window-y="0"
     inkscape:window-maximized="1"
     inkscape:current-layer="svg1" />
  <path
     d="m 4.5,18.324099 h -2 c -1.10457,0 -2,-0.8954 -2,-2 V 9.2439986 c 0,-0.5839 0.25513,-1.13858 0.69842,-1.51854 l 4.99998,-4.28572 c 0.749,-0.64198 1.8542,-0.64198 2.6032,0 l 5,4.28572 c 0.4433,0.37996 0.6984,0.93464 0.6984,1.51854 v 7.0801004 c 0,1.1046 -0.8954,2 -2,2 h -2 m -6,0 v -6 c 0,-0.5523 0.44772,-1 1,-1 h 4 c 0.5523,0 1,0.4477 1,1 v 6 m -6,0 h 6"
     stroke-linecap="round"
     stroke-linejoin="round"
     id="path1" />
</svg>
