<?xml version="1.0" encoding="UTF-8" standalone="no"?>
<!-- Uploaded to: SVG Repo, www.svgrepo.com, Transformed by: SVG Repo Mixer Tools -->

<svg
   version="1.1"
   id="Layer_1"
   viewBox="0 0 512 512"
   xml:space="preserve"
   width="900px"
   height="800px"
   fill="#000000"
   sodipodi:docname="senf-writer.svg"
   inkscape:version="1.2.2 (b0a8486541, 2022-12-01)"
   xmlns:inkscape="http://www.inkscape.org/namespaces/inkscape"
   xmlns:sodipodi="http://sodipodi.sourceforge.net/DTD/sodipodi-0.dtd"
   xmlns="http://www.w3.org/2000/svg"
   xmlns:svg="http://www.w3.org/2000/svg"><defs
   id="defs4" /><sodipodi:namedview
   id="namedview4"
   pagecolor="#ffffff"
   bordercolor="#000000"
   borderopacity="0.25"
   inkscape:showpageshadow="2"
   inkscape:pageopacity="0.0"
   inkscape:pagecheckerboard="0"
   inkscape:deskcolor="#d1d1d1"
   inkscape:zoom="0.9575"
   inkscape:cx="271.54047"
   inkscape:cy="491.38381"
   inkscape:window-width="1920"
   inkscape:window-height="970"
   inkscape:window-x="0"
   inkscape:window-y="0"
   inkscape:window-maximized="1"
   inkscape:current-layer="Layer_1"
   showgrid="false" />

<g
   id="SVGRepo_bgCarrier"
   stroke-width="0"
   transform="translate(-49.92)" />

<g
   id="SVGRepo_tracerCarrier"
   stroke-linecap="round"
   stroke-linejoin="round"
   transform="translate(-49.92)" />
<g
   id="SVGRepo_iconCarrier"
   transform="translate(-5e-4)"> <g
   id="g1"> <rect
   x="162.409"
   y="244.989"
   style="fill:#ffde17;fill-opacity:1;stroke:none;stroke-width:0;stroke-dasharray:none"
   width="137.634"
   height="132.129"
   id="rect1" /> <polygon
   style="fill:#e7eced"
   points="289.032,85.333 222.968,85.333 239.484,8.258 272.516,8.258 "
   id="polygon1" /> </g> <polygon
   style="fill:#ffd248"
   points="316.559,123.871 195.441,123.871 195.441,85.333 222.968,85.333 289.032,85.333 316.559,85.333 "
   id="polygon2" /> <polygon
   style="fill:#f7b122"
   points="151.398,123.871 195.441,123.871 316.559,123.871 360.602,123.871 360.602,162.409 349.591,162.409 162.409,162.409 151.398,162.409 "
   id="polygon3" /> <path
   d="M 162.40875,162.40875 V 503.7425 h 187.1825 V 162.40875 Z"
   style="fill:#ffde17"
   id="path5"
   sodipodi:nodetypes="ccccc" /> <path
   d="M 368.86,115.613 H 324.817 V 77.075 H 295.708 L 279.192,0 h -46.385 l -16.516,77.075 h -29.108 v 38.538 H 143.14 v 55.054 h 11.011 V 512 H 357.85 V 170.667 h 11.011 V 115.613 Z M 246.16,16.516 h 19.68 l 12.977,60.559 h -45.633 z m -42.461,77.075 h 104.602 v 22.022 H 203.699 Z m -44.043,38.538 h 192.688 v 22.022 H 159.656 Z M 341.333,495.484 H 170.667 V 170.666 h 170.667 v 324.818 z"
   id="path4"
   sodipodi:nodetypes="ccccccccccccccccccccccccccccccccccccccc" /> </g>

<text
   xml:space="preserve"
   style="font-style:normal;font-variant:normal;font-weight:bold;font-stretch:normal;font-size:135.427px;font-family:sans-serif;-inkscape-font-specification:'sans-serif Bold';opacity:1;fill:#865b04;fill-opacity:1;stroke:#000000;stroke-width:0;stroke-dasharray:none;stroke-opacity:1"
   x="200.64977"
   y="293.41882"
   id="text4062"
   transform="scale(0.96678223,1.0343591)"><tspan
     sodipodi:role="line"
     id="tspan4060"
     style="font-style:normal;font-variant:normal;font-weight:bold;font-stretch:normal;font-size:135.427px;font-family:sans-serif;-inkscape-font-specification:'sans-serif Bold';fill:#865b04;fill-opacity:1;stroke-width:0"
     x="200.64977"
     y="293.41882">W</tspan></text></svg>
