<?xml version="1.0" encoding="UTF-8" standalone="no"?>
<!-- Uploaded to: SVG Repo, www.svgrepo.com, Generator: SVG Repo Mixer Tools -->

<svg
   id="main"
   width="600"
   height="800"
   viewBox="0 0 18 24"
   fill="none"
   version="1.1"
   sodipodi:docname="settings.svg"
   inkscape:version="1.3.2 (1:1.3.2+202311252150+091e20ef0f)"
   xmlns:inkscape="http://www.inkscape.org/namespaces/inkscape"
   xmlns:sodipodi="http://sodipodi.sourceforge.net/DTD/sodipodi-0.dtd"
   xmlns="http://www.w3.org/2000/svg"
   xmlns:svg="http://www.w3.org/2000/svg">
  <defs
     id="defs2" />
  <sodipodi:namedview
     id="namedview2"
     pagecolor="#ffffff"
     bordercolor="#000000"
     borderopacity="0.25"
     inkscape:showpageshadow="2"
     inkscape:pageopacity="0.0"
     inkscape:pagecheckerboard="0"
     inkscape:deskcolor="#d1d1d1"
     inkscape:zoom="0.68"
     inkscape:cx="282.35294"
     inkscape:cy="308.82353"
     inkscape:window-width="1920"
     inkscape:window-height="970"
     inkscape:window-x="0"
     inkscape:window-y="0"
     inkscape:window-maximized="1"
     inkscape:current-layer="svg2" />
  <path
     d="m 6.9000673,4.5600673 c 0,-0.75425 0,-1.13137 0.2343,-1.36569 0.2343,-0.23431 0.6115,-0.23431 1.3657,-0.23431 0.7542,0 1.1314,0 1.3657,0.23431 0.2342997,0.23432 0.2342997,0.61144 0.2342997,1.36569 v 1.0319 c 0.3725,0.11085 0.7287,0.2594 1.0642,0.44124 l 0.73,-0.72999 c 0.5333,-0.53333 0.8,-0.8 1.1314,-0.8 0.3313,0 0.598,0.26667 1.1313,0.8 0.5334,0.53334 0.8,0.8 0.8,1.13137 0,0.33137 -0.2666,0.59804 -0.8,1.13137 l -0.73,0.73002 c 0.1818,0.33551 0.3304,0.69169 0.4412,1.06409 h 1.0319 c 0.7542,0 1.1314,0 1.3657,0.2343 0.2343,0.2343 0.2343,0.6114997 0.2343,1.3656997 0,0.7542 0,1.1314 -0.2343,1.3657 -0.2343,0.2343 -0.6115,0.2343 -1.3657,0.2343 h -1.0319 c -0.1108,0.3724 -0.2594,0.7286 -0.4412,1.0641 l 0.73,0.73 c 0.5333,0.5334 0.8,0.8 0.8,1.1314 0,0.3314 -0.2667,0.598 -0.8,1.1314 -0.5333,0.5333 -0.8,0.8 -1.1314,0.8 -0.3313,0 -0.598,-0.2667 -1.1313,-0.8 l -0.73,-0.73 c -0.3356,0.1818 -0.6918,0.3304 -1.0642,0.4412 v 1.0319 c 0,0.7542 0,1.1314 -0.2342997,1.3657 -0.2343,0.2343 -0.6115,0.2343 -1.3657,0.2343 -0.7542,0 -1.1314,0 -1.3657,-0.2343 -0.2343,-0.2343 -0.2343,-0.6115 -0.2343,-1.3657 v -1.0319 c -0.3724,-0.1108 -0.72858,-0.2594 -1.06409,-0.4412 l -0.72993,0.73 c -0.53333,0.5333 -0.8,0.8 -1.13137,0.8 -0.33137,0 -0.59804,-0.2667 -1.13137,-0.8 -0.53333,-0.5334 -0.8,-0.8 -0.8,-1.1314 0,-0.3314 0.26667,-0.598 0.8,-1.1314 l 0.7299,-0.7299 c -0.18184,-0.3355 -0.33039,-0.6917 -0.44124,-1.0642 h -1.0319 c -0.75425,0 -1.13136996,0 -1.36568996,-0.2343 -0.23431,-0.2343 -0.23431,-0.6115 -0.23431,-1.3657 0,-0.7542 0,-1.1313997 0.23431,-1.3656997 0.23432,-0.2343 0.61143996,-0.2343 1.36568996,-0.2343 h 1.0319 c 0.11085,-0.3724 0.2594,-0.72865 0.44122,-1.06419 l -0.72992,-0.72992 c -0.53333,-0.53333 -0.8,-0.8 -0.8,-1.13137 0,-0.33137 0.26667,-0.59804 0.8,-1.13137 0.53334,-0.53333 0.8,-0.8 1.13137,-0.8 0.33137,0 0.59804,0.26667 1.13137,0.8 l 0.72994,0.72993 c 0.33552,-0.1818 0.69172,-0.33034 1.06412,-0.44118 z"     
     stroke-linecap="round"
     stroke-linejoin="round"
     id="path1" />
  <path
     d="m 10.900067,10.960067 c 0,1.3255 -1.0744997,2.4 -2.3999997,2.4 -1.3255,0 -2.4,-1.0745 -2.4,-2.4 0,-1.3254997 1.0745,-2.3999997 2.4,-2.3999997 1.3255,0 2.3999997,1.0745 2.3999997,2.3999997 z"
     stroke-linecap="round"
     stroke-linejoin="round"
     id="path2" />
</svg>
